<svg xmlns="http://www.w3.org/2000/svg" width="2078" height="1174" viewBox="0 0 2078 1174"><defs><mask id="raw8b" width="2" height="2" x="-1" y="-1"><path fill="#fff" d="M188 101h1696v926H188z"/><path d="M191.57 1027c0-467.347 378.863-846.209 846.214-846.209C1505.137 180.791 1884 559.653 1884 1027V101H188v926z"/></mask><filter id="raw8a" width="1802.2" height="1037" x="134.8" y="43" filterUnits="userSpaceOnUse"><feOffset dx="-.2" dy="-5" in="SourceGraphic" result="FeOffset1023Out"/><feGaussianBlur in="FeOffset1023Out" result="FeGaussianBlur1024Out" stdDeviation="17.2 17.2"/></filter><mask id="raw8d" width="2" height="2" x="-1" y="-1"><path fill="#fff" d="M43 48h1992v1088H43z"/><path d="M47.192 1136c0-549.108 444.986-994.249 993.904-994.249S2035 586.892 2035 1136V48H43v1088z"/></mask><filter id="raw8c" width="2098.2" height="1199" x="-10.2" y="-10" filterUnits="userSpaceOnUse"><feOffset dx="-.2" dy="-5" in="SourceGraphic" result="FeOffset1039Out"/><feGaussianBlur in="FeOffset1039Out" result="FeGaussianBlur1040Out" stdDeviation="17.2 17.2"/></filter></defs><g><g opacity=".85"><g filter="url(#raw8a)"><path fill="none" d="M191.57 1027c0-467.347 378.863-846.209 846.214-846.209C1505.137 180.791 1884 559.653 1884 1027V101H188v926z" mask="url(&quot;#raw8b&quot;)"/><path fill="#020400" fill-opacity=".2" d="M191.57 1027c0-467.347 378.863-846.209 846.214-846.209C1505.137 180.791 1884 559.653 1884 1027V101H188v926z"/></g><path fill="#ebf2f2" d="M191.57 1027c0-467.347 378.863-846.209 846.214-846.209C1505.137 180.791 1884 559.653 1884 1027V101H188v926z"/></g><g><g filter="url(#raw8c)"><path fill="none" d="M47.192 1136c0-549.108 444.986-994.249 993.904-994.249S2035 586.892 2035 1136V48H43v1088z" mask="url(&quot;#raw8d&quot;)"/><path fill="#020400" fill-opacity=".2" d="M47.192 1136c0-549.108 444.986-994.249 993.904-994.249S2035 586.892 2035 1136V48H43v1088z"/></g><path fill="#d5dcdc" d="M47.192 1136c0-549.108 444.986-994.249 993.904-994.249S2035 586.892 2035 1136V48H43v1088z"/></g></g></svg>